<svg width="200" height="43" viewBox="0 0 200 43" fill="white" xmlns="http://www.w3.org/2000/svg">
<path d="M16.1614 14.4482C19.4563 14.4482 22.1087 15.4455 24.1185 17.4401C26.1614 19.4347 27.1828 22.3933 27.1828 26.316V42.0732H19.4728V27.5127C19.4728 25.3852 19.0115 23.8061 18.0889 22.7756C17.1663 21.7118 15.8319 21.1799 14.0856 21.1799C12.1416 21.1799 10.593 21.7949 9.43984 23.0249C8.28663 24.2217 7.71002 26.0168 7.71002 28.4103V42.0732H0V0H7.71002V17.6396C8.73144 16.609 9.96702 15.8278 11.4168 15.2959C12.8665 14.7308 14.4481 14.4482 16.1614 14.4482Z" />
<path d="M44.432 42.0732C41.6314 42.0732 39.1108 41.4914 36.8703 40.3279C34.6627 39.1312 32.9329 37.4856 31.6808 35.3913C30.4288 33.297 29.8028 30.9201 29.8028 28.2607C29.8028 25.6013 30.4288 23.2244 31.6808 21.1301C32.9329 19.0358 34.6627 17.4069 36.8703 16.2434C39.1108 15.0466 41.6314 14.4482 44.432 14.4482C47.2327 14.4482 49.7368 15.0466 51.9444 16.2434C54.1519 17.4069 55.8817 19.0358 57.1338 21.1301C58.3858 23.2244 59.0119 25.6013 59.0119 28.2607C59.0119 30.9201 58.3858 33.297 57.1338 35.3913C55.8817 37.4856 54.1519 39.1312 51.9444 40.3279C49.7368 41.4914 47.2327 42.0732 44.432 42.0732ZM44.432 35.6905C46.409 35.6905 48.0234 35.0257 49.2755 33.6959C50.5605 32.333 51.203 30.5212 51.203 28.2607C51.203 26.0002 50.5605 24.2051 49.2755 22.8753C48.0234 21.5124 46.409 20.8309 44.432 20.8309C42.4551 20.8309 40.8241 21.5124 39.5391 22.8753C38.2541 24.2051 37.6116 26.0002 37.6116 28.2607C37.6116 30.5212 38.2541 32.333 39.5391 33.6959C40.8241 35.0257 42.4551 35.6905 44.432 35.6905Z" />
<path d="M76.2611 42.0732C73.4605 42.0732 70.9399 41.4914 68.6994 40.3279C66.4918 39.1312 64.762 37.4856 63.5099 35.3913C62.2579 33.297 61.6319 30.9201 61.6319 28.2607C61.6319 25.6013 62.2579 23.2244 63.5099 21.1301C64.762 19.0358 66.4918 17.4069 68.6994 16.2434C70.9399 15.0466 73.4605 14.4482 76.2611 14.4482C79.0618 14.4482 81.5659 15.0466 83.7735 16.2434C85.981 17.4069 87.7108 19.0358 88.9629 21.1301C90.215 23.2244 90.841 25.6013 90.841 28.2607C90.841 30.9201 90.215 33.297 88.9629 35.3913C87.7108 37.4856 85.981 39.1312 83.7735 40.3279C81.5659 41.4914 79.0618 42.0732 76.2611 42.0732ZM76.2611 35.6905C78.2381 35.6905 79.8526 35.0257 81.1046 33.6959C82.3896 32.333 83.0321 30.5212 83.0321 28.2607C83.0321 26.0002 82.3896 24.2051 81.1046 22.8753C79.8526 21.5124 78.2381 20.8309 76.2611 20.8309C74.2842 20.8309 72.6532 21.5124 71.3682 22.8753C70.0832 24.2051 69.4407 26.0002 69.4407 28.2607C69.4407 30.5212 70.0832 32.333 71.3682 33.6959C72.6532 35.0257 74.2842 35.6905 76.2611 35.6905Z" />
<path d="M127.514 14.0244C130.841 14.0244 133.477 15.0217 135.421 17.0163C137.398 18.9776 138.387 21.9362 138.387 25.8921V42.0732H130.677V27.0889C130.677 24.9613 130.232 23.3823 129.342 22.3518C128.486 21.288 127.25 20.7561 125.635 20.7561C123.823 20.7561 122.39 21.3545 121.336 22.5512C120.281 23.7147 119.754 25.46 119.754 27.787V42.0732H112.044V27.0889C112.044 22.867 110.364 20.7561 107.003 20.7561C105.224 20.7561 103.807 21.3545 102.753 22.5512C101.698 23.7147 101.171 25.46 101.171 27.787V42.0732H93.461V14.4233H100.825V17.5149C101.813 16.3846 103.016 15.5203 104.433 14.922C105.883 14.3236 107.464 14.0244 109.178 14.0244C111.056 14.0244 112.752 14.4067 114.268 15.1713C115.784 15.9026 117.003 16.983 117.925 18.4125C119.013 17.0163 120.38 15.9359 122.028 15.1713C123.708 14.4067 125.537 14.0244 127.514 14.0244Z" />
<path d="M163.056 27.9954C161.666 30.7632 158.635 33.0782 155.696 33.0782C152.108 33.0782 149.501 30.7903 148.111 28.0235C140.03 31.6718 141.048 40.1257 141.048 40.1257C141.048 41.3899 142.19 42.0731 143.533 42.0731H167.839C169.183 42.0731 170.329 41.3889 170.329 40.1257C170.329 40.1257 171.136 31.6448 163.056 27.9954Z" />
<path d="M155.695 30.7985C159.742 30.7985 162.959 25.7497 162.959 21.5785C162.959 17.4062 159.679 14.0243 155.632 14.0243C151.585 14.0243 148.303 17.4062 148.303 21.5785C148.303 25.7507 151.647 30.7985 155.695 30.7985Z" />
<path d="M189.041 14.8035C192.317 14.8035 194.955 15.8024 196.953 17.8002C198.984 19.798 200 22.7613 200 26.6903V42.0732H192.334V27.889C192.334 25.758 191.875 24.1764 190.958 23.1442C190.04 22.0788 188.714 21.546 186.977 21.546C185.044 21.546 183.505 22.162 182.358 23.394C181.211 24.5926 180.638 26.3906 180.638 28.788V42.0732H172.972V15.2031H180.294V18.3496C181.309 17.2175 182.571 16.3518 184.078 15.7525C185.585 15.1198 187.239 14.8035 189.041 14.8035Z" />
</svg>
