<svg id="Logos" xmlns="http://www.w3.org/2000/svg" xmlns:xlink="http://www.w3.org/1999/xlink" viewBox="0 0 271.53177 178.49766"><defs><style>.cls-1{fill:none;}.cls-2{clip-path:url(#clip-path);}.cls-3{clip-path:url(#clip-path-2);}.cls-4{fill:#ffb547;}.cls-5{fill:#9bdad9;}.cls-6{fill:#dce0eb;}.cls-7{fill:#8d97a8;}</style><clipPath id="clip-path"><rect class="cls-1" x="12.88154" y="12.88141" width="245.7687" height="152.73483"/></clipPath><clipPath id="clip-path-2"><rect class="cls-1" x="0.34604" y="0.57052" width="270.83963" height="177.35662"/></clipPath></defs><g id="lulujr-logo-primary-rgb"><g class="cls-2"><g class="cls-3"><path class="cls-4" d="M103.3242,119.0049a1.55025,1.55025,0,0,1-.58846-1.19367,1.48007,1.48007,0,0,1,1.48272-1.49651,1.41236,1.41236,0,0,1,.93415.3255,3.02475,3.02475,0,0,0,1.89244.70566c1.21828,0,1.95152-.70566,1.95152-2.344V107.316a1.56473,1.56473,0,0,1,3.12942,0v7.82628a4.61935,4.61935,0,0,1-5.04106,5.09622,6.04683,6.04683,0,0,1-3.76073-1.23355m16.64925-5.03466c0,4.1655,2.3371,6.28791,6.1584,6.28791s6.24162-2.10172,6.24162-6.39035v-6.55086a1.56548,1.56548,0,0,0-3.13091,0v6.674c0,2.24354-1.1592,3.39535-3.06885,3.39535-1.91164,0-3.07083-1.19169-3.07083-3.49728v-6.572a1.56473,1.56473,0,0,0-3.12943,0v6.6533m20.47153,4.65055a1.54553,1.54553,0,0,0,3.091,0v-7.582l6.25885,8.168a1.94116,1.94116,0,0,0,1.626.91h.10243a1.54874,1.54874,0,0,0,1.56544-1.55658V107.29675a1.545,1.545,0,0,0-3.09,0v7.29986l-6.03677-7.88635a1.93858,1.93858,0,0,0-1.6265-.91h-.325a1.54856,1.54856,0,0,0-1.56546,1.55709Zm21.08265-.02019a1.56448,1.56448,0,0,0,3.12893,0V107.31644a1.56448,1.56448,0,0,0-3.12893,0Zm22.37923-5.60145a4.2418,4.2418,0,0,1-4.26744,4.40779,4.312,4.312,0,0,1-4.31128-4.44718v-.04186a4.24341,4.24341,0,0,1,4.26941-4.40779,4.311,4.311,0,0,1,4.30931,4.44965v.03939m-11.85,0a7.56607,7.56607,0,0,0,15.12269-.03939v-.04186a7.566,7.566,0,0,0-15.12269.04186v.03939m24.29381-.24129v-4.06555H199.46c1.52556,0,2.45971.68645,2.45971,2.02194v.03988c0,1.19367-.87359,2.00373-2.39768,2.00373Zm-3.13089,5.84324a1.56547,1.56547,0,0,0,3.13089,0v-3.09447h2.50011l3.04965,3.842a1.87421,1.87421,0,0,0,1.5433.80956,1.45357,1.45357,0,0,0,1.48419-1.43594,1.81252,1.81252,0,0,0-.50671-1.19367l-2.17459-2.62764a4.324,4.324,0,0,0,2.84381-4.30782v-.04136a4.43531,4.43531,0,0,0-1.21928-3.23481,5.68437,5.68437,0,0,0-4.14679-1.436h-4.93864a1.54928,1.54928,0,0,0-1.56594,1.55709Z"/><path class="cls-5" d="M95.71735,109.97963a37.95547,37.95547,0,0,1-1.26654,9.82311c-17.00529-1.16165-35.91333-1.48026-44.25668-3.16981l-2.535-.422.9499-8.66194c1.58515-14.46923,2.74681-24.82122,3.06345-31.15788L54.0568,24.38594a22.59338,22.59338,0,0,1,6.33666-1.05677,24.01147,24.01147,0,0,1,6.97142,1.3734l-.21126,5.17452a17.93305,17.93305,0,0,1-.10538,2.32332l-2.06774,44.824c-.31663,6.12689-.84453,12.03612-2.42968,26.61271,10.45638.63327,20.38487,1.16116,33.16653,2.21841.10489.845,0,2.9625,0,4.12415m15.2335-13.93248c-.63327-4.43684-1.79493-10.45638-2.21645-13.09879A19.29394,19.29394,0,0,1,92.57266,91.927c-10.03338,0-14.99811-6.443-14.99811-19.53986,0-6.33814,1.26654-17.95666,2.113-28.62478a51.45005,51.45005,0,0,1,12.88507,1.3734c-.73816,11.1965-1.3734,20.17459-1.3734,23.76642,0,6.76015,1.26851,9.92849,4.54173,10.24512,6.55038-2.11353,8.66194-4.22509,10.2466-12.35866.845-4.64662.9504-14.57659,1.05676-17.53316a51.49131,51.49131,0,0,1,6.44353-.845,21.37247,21.37247,0,0,1,6.54841,1.47828c-.10686,1.26655-.21175,4.01335-.21175,5.28186a207.728,207.728,0,0,0,3.59133,38.55329c-2.7468,1.26654-4.85837,2.00618-12.465,2.32331M138.84142,99.639a17.13277,17.13277,0,0,1-3.48694-.31713c-.10489-1.05628,0-4.43635.10637-8.76782.10488-5.07011,0-22.815-.423-41.19372a276.73763,276.73763,0,0,0-2.00669-28.87348,20.97772,20.97772,0,0,0-1.16214-6.02,23.11268,23.11268,0,0,1,8.87172-1.58515c.21224,0,4.86034.42154,7.18366,2.11157-.21176,2.43018-.423,4.75348-.52838,6.86652-.31664,6.44353-.31664,10.70556,0,27.39569.21124,14.46972.63326,29.99671,1.16164,41.50986.21176,3.38007.52838,6.02.74014,7.71007A46.92474,46.92474,0,0,1,138.84142,99.639m51.71905-3.59183c-.63328-4.43684-1.79544-10.45638-2.217-13.09879A19.29314,19.29314,0,0,1,172.18227,91.927c-10.03338,0-14.99861-6.443-14.99861-19.53986,0-6.33814,1.26655-17.95666,2.11354-28.62478a51.45575,51.45575,0,0,1,12.88507,1.3734c-.73816,11.1965-1.37341,20.17459-1.37341,23.76642,0,6.76015,1.268,9.92849,4.54125,10.24512,6.55037-2.11353,8.66194-4.22509,10.24709-12.35866.845-4.64662.9499-14.57659,1.05627-17.53316a51.49166,51.49166,0,0,1,6.44352-.845,21.36951,21.36951,0,0,1,6.54841,1.47828c-.10685,1.26655-.21174,4.01335-.21174,5.28186A207.728,207.728,0,0,0,203.025,93.72384c-2.74631,1.26654-4.85837,2.00618-12.46452,2.32331"/><path class="cls-6" d="M222.858,118.78084A300.27134,300.27134,0,0,1,178.26106,137.848c-27.49023,9.06032-56.4223,13.60748-84.31928,10.08114a134.19986,134.19986,0,0,1-20.50256-4.29059L68.442,142.09668l-4.90221-1.81413c-1.65064-.56778-3.20723-1.35715-4.819-2.02095L56.33053,137.229,54.119,136.16087c-11.61411-6.01462-21.62483-16.00318-26.57529-28.03732a38.71609,38.71609,0,0,1-2.8256-18.909A39.39784,39.39784,0,0,1,31.90178,70.8309c3.872-5.74426,9.16325-10.641,14.99959-15.005,1.90671-1.42215,3.88433-2.77389,5.90135-4.08918l.1625-3.54356C50.114,49.30654,47.2899,50.52778,44.50764,51.911A65.75681,65.75681,0,0,0,25.59171,65.70268,46.50279,46.50279,0,0,0,13.9855,87.34227a48.47827,48.47827,0,0,0,1.25423,25.12062,62.3002,62.3002,0,0,0,12.20846,21.72725,71.68136,71.68136,0,0,0,19.14688,15.81309l2.75961,1.48864c.90461.45894,1.79345.86028,2.69609,1.28427,1.80969.81,3.57115,1.74125,5.42566,2.44494l5.52857,2.21,5.63593,1.90819a145.17588,145.17588,0,0,0,23.16171,5.09622,159.14014,159.14014,0,0,0,46.809-1.21385,199.24581,199.24581,0,0,0,44.28128-13.12883,225.4546,225.4546,0,0,0,39.95231-22.12514q2.46414-1.72623,4.879-3.51747Zm35.75674-24.16628-19.91165,41.85949a.35421.35421,0,0,1-.589.07879l-7.06055-8.22466L255.9339,96.49567l-35.26232,19.73878-7.0379-8.19806a.35421.35421,0,0,1,.167-.57024l44.39207-13.343a.3542.3542,0,0,1,.422.49145"/><polygon class="cls-7" points="231.054 128.328 255.934 96.496 220.672 116.235 231.054 128.328"/></g></g></g></svg>