<svg xmlns="http://www.w3.org/2000/svg" xmlns:xlink="http://www.w3.org/1999/xlink" viewBox="0 0 500 175"><defs><style>.cls-1{fill:#fff;}.cls-2{fill:url(#linear-gradient);}.cls-3{fill:url(#linear-gradient-2);}.cls-4{fill:#22b5f0;}.cls-5{fill:url(#linear-gradient-3);}.cls-6{fill:url(#linear-gradient-4);}.cls-7{fill:url(#linear-gradient-5);}</style><linearGradient id="linear-gradient" x1="54.58112" y1="168.98644" x2="-1.59076" y2="39.42107" gradientUnits="userSpaceOnUse"><stop offset="0" stop-color="#000083"/><stop offset="1" stop-color="#22b5f0"/></linearGradient><linearGradient id="linear-gradient-2" x1="87.05266" y1="180.19169" x2="26.6523" y2="36.90146" gradientUnits="userSpaceOnUse"><stop offset="0" stop-color="#000083"/><stop offset="0.08408" stop-color="#091c95"/><stop offset="0.25492" stop-color="#1850b5"/><stop offset="0.42293" stop-color="#267bcf"/><stop offset="0.58458" stop-color="#309de4"/><stop offset="0.73819" stop-color="#37b5f3"/><stop offset="0.88033" stop-color="#3bc3fc"/><stop offset="1" stop-color="#3dc8ff"/></linearGradient><linearGradient id="linear-gradient-3" x1="143.42209" y1="151.4804" x2="47.778" y2="46.8892" gradientUnits="userSpaceOnUse"><stop offset="0" stop-color="#2083e6"/><stop offset="0.03759" stop-color="#2488e8"/><stop offset="0.3881" stop-color="#44b0f4"/><stop offset="0.66581" stop-color="#58c9fc"/><stop offset="0.83453" stop-color="#5fd2ff"/></linearGradient><linearGradient id="linear-gradient-4" x1="121.24446" y1="33.7475" x2="66.98946" y2="33.7475" gradientUnits="userSpaceOnUse"><stop offset="0" stop-color="#099cd6"/><stop offset="0.04624" stop-color="#0ea1db"/><stop offset="0.20514" stop-color="#19ace7"/><stop offset="0.42511" stop-color="#20b3ee"/><stop offset="1" stop-color="#22b5f0"/></linearGradient><linearGradient id="linear-gradient-5" x1="63.86874" y1="45.78182" x2="120.78321" y2="45.78182" gradientUnits="userSpaceOnUse"><stop offset="0" stop-color="#3dc8ff"/><stop offset="0.3969" stop-color="#36c3fb"/><stop offset="0.96322" stop-color="#23b6f1"/><stop offset="1" stop-color="#22b5f0"/></linearGradient></defs><g id="Logo_Artwork" data-name="Logo Artwork"><path class="cls-1" d="M138.46177,147.21153,153.54606,46.93566a4.23287,4.23287,0,0,1,3.00712-3.43581l30.14658-8.74014a2.82193,2.82193,0,0,1,3.57648,3.12894L175.1888,138.4669c-.58283,4.8587,1.36065,6.80115,6.02438,6.80115a27.53113,27.53113,0,0,0,4.56588-.41611,3.03109,3.03109,0,0,1,3.52042,3.42452l-3.11263,20.65235a5.01284,5.01284,0,0,1-3.8406,4.13787A65.03661,65.03661,0,0,1,166.63914,175C145.65182,175,135.74152,165.28363,138.46177,147.21153Zm184.49913,0L338.04519,46.93566a4.23286,4.23286,0,0,1,3.00712-3.43581l30.14658-8.74014a2.82193,2.82193,0,0,1,3.57648,3.12894L359.68793,138.4669c-.58283,4.8587,1.36065,6.80115,6.02438,6.80115a27.53093,27.53093,0,0,0,4.56587-.41611,3.03108,3.03108,0,0,1,3.52042,3.42452L370.686,168.92881a5.01284,5.01284,0,0,1-3.8406,4.13787A65.03661,65.03661,0,0,1,351.13827,175C330.151,175,320.24065,165.28363,322.9609,147.21153Zm-7.68624,1.01356-3.01393,20.9534a4.602,4.602,0,0,1-3.54175,3.82731A69.08719,69.08719,0,0,1,292.77083,175c-13.60229,0-22.153-4.4698-25.65-12.04772C258.959,170.1413,246.71633,175,233.308,175c-25.26112,0-39.25232-16.90642-35.56032-41.77967l8.16794-55.32288a3.02762,3.02762,0,0,1,2.99515-2.58541H238.156a3.02762,3.02762,0,0,1,2.99512,3.47005l-7.06534,47.831c-1.74955,11.27095,3.10915,18.26707,13.60229,18.26707,10.68812,0,18.266-6.60721,19.82061-17.68423l7.38652-49.30486a3.02761,3.02761,0,0,1,2.9942-2.57905h29.252a3.02762,3.02762,0,0,1,2.99513,3.47l-8.815,59.68488c-.77781,4.66373,1.16568,6.80115,6.02334,6.80115a23.05471,23.05471,0,0,0,4.36177-.44491A3.03373,3.03373,0,0,1,315.27466,148.22509Zm184.69369,0-3.16683,22.0165a3.04192,3.04192,0,0,1-2.33246,2.52342A71.21608,71.21608,0,0,1,477.46452,175c-13.6023,0-22.153-4.4698-25.65-12.04772C443.65271,170.1413,431.41,175,418.00165,175c-25.26111,0-39.25231-16.90642-35.56032-41.77967l8.168-55.32288a3.02762,3.02762,0,0,1,2.99515-2.58541h29.24525a3.02762,3.02762,0,0,1,2.99512,3.47005l-7.06534,47.831c-1.74955,11.27095,3.10916,18.26707,13.6023,18.26707,10.68811,0,18.266-6.60721,19.82061-17.68423l7.38651-49.30486a3.02762,3.02762,0,0,1,2.99421-2.57905h29.252a3.02763,3.02763,0,0,1,2.99514,3.47l-8.815,59.68488c-.77781,4.66373,1.16567,6.80115,6.02334,6.80115a23.05479,23.05479,0,0,0,4.36177-.44491A3.03373,3.03373,0,0,1,499.96835,148.22509Z"/><path class="cls-2" d="M98.53893,173.82281c-14.7081-36.78553-61.3913-47.2302-70.54686-48.94619a1.64626,1.64626,0,0,1-1.327-1.86305L39.91018,35.11623a159.93,159.93,0,0,0-22.27413-.73812,1.642,1.642,0,0,0-1.53093,1.39918L.01887,142.53038a1.641,1.641,0,0,0,1.66154,1.89013c11.64857-.28392,71.96189-.30049,89.49826,28.94726a3.30491,3.30491,0,0,0,3.7542,1.50255Z"/><path class="cls-3" d="M104.98033,169.95865c-3.653-23.48011-31.2523-48.41438-31.2523-48.41438-8.24146-10.02971-1.33826-23.95973,2.03162-29.51374a1.63939,1.63939,0,0,0-1.27925-2.48635c-5.24718-.40534-15.85547-2.72378-15.85161-14.84584a20.90889,20.90889,0,0,1,.2651-3.09665l4.97483-33.1135v-.00006l-.00665-.00125c-5.14577-.9784-10.2815-1.779-15.23354-2.41029l-.05985-.00766c-2.96406-.3772-5.85973-.69407-8.65113-.952l-.00737-.00071L26.66509,123.01357a1.64626,1.64626,0,0,0,1.327,1.86305c9.15556,1.716,55.83876,12.16066,70.54686,48.94619l4.11043-1.19393a3.291,3.291,0,0,0,2.33619-2.66993l.55252-3.66656C105.1756,168.6768,104.98033,169.95865,104.98033,169.95865Z"/><path class="cls-4" d="M48.56868,36.06893l.05983.00764c4.95208.63134,10.0878,1.43193,15.23359,2.41034l.00664.00122L66.98946,17.716a109.38429,109.38429,0,0,0-22.55534-3.11513A1.63822,1.63822,0,0,0,42.79044,16.002L39.91015,35.11625l.00741.00072C42.709,35.37489,45.60465,35.69175,48.56868,36.06893Z"/><path class="cls-5" d="M119.46839,73.84764C122.37611,55.2748,93.0061,44.02926,63.86872,38.48819l-4.97483,33.1135a20.90889,20.90889,0,0,0-.2651,3.09665C58.62493,86.8204,69.23322,89.13884,74.4804,89.54418a1.63939,1.63939,0,0,1,1.27925,2.48635c-3.36988,5.554-10.27308,19.484-2.03162,29.51374,0,0,27.59933,24.93427,31.2523,48.41438,0,.00006,7.03572-46.18654,15.4442-102.45634Z"/><path class="cls-6" d="M120.42564,67.495C127.96313,17.05362,81.23539,2.52127,71.46921.05087a1.643,1.643,0,0,0-2.02884,1.35157L66.98946,17.716C94.15212,24.20412,124.42333,40.78778,120.42564,67.495Z"/><path class="cls-7" d="M66.98946,17.716,63.86874,38.48813h0v.00006c29.13738,5.54108,58.50737,16.78662,55.59963,35.35949l.95727-6.35268C124.42333,40.78778,94.15212,24.20412,66.98946,17.716Z"/></g></svg>